HIERARCHY
ROOT joint_Root
{
	OFFSET 0.0 0.0 0.0
	CHANNELS 6 Xposition Yposition Zposition Zrotation Xrotation Yrotation 
	JOINT Hips
	{
		OFFSET -0.726466 93.3139 -2.00062
		CHANNELS 6 Xposition Yposition Zposition Zrotation Xrotation Yrotation 
		JOINT Spine
		{
			OFFSET 15.7357 0.0 0.0
			CHANNELS 6 Xposition Yposition Zposition Zrotation Xrotation Yrotation 
			JOINT Chest
			{
				OFFSET 8.98455 -0.406207 0.0
				CHANNELS 6 Xposition Yposition Zposition Zrotation Xrotation Yrotation 
				JOINT Neck
				{
					OFFSET 16.3773 0.0 0.0
					CHANNELS 6 Xposition Yposition Zposition Zrotation Xrotation Yrotation 
					JOINT Head
					{
						OFFSET 6.45672 0.0 0.0
						CHANNELS 6 Xposition Yposition Zposition Zrotation Xrotation Yrotation 
						End Site
						{
							OFFSET 0.0 0.0 0.0
						}
					}
				}
				JOINT Shoulder_L
				{
					OFFSET 12.9942 -0.242716 4.98039
					CHANNELS 6 Xposition Yposition Zposition Zrotation Xrotation Yrotation 
					JOINT UpperArm_L
					{
						OFFSET 5.34809 0.0 0.0
						CHANNELS 6 Xposition Yposition Zposition Zrotation Xrotation Yrotation 
						JOINT LowerArm_L
						{
							OFFSET 24.3286 1.87007e-05 0.0
							CHANNELS 6 Xposition Yposition Zposition Zrotation Xrotation Yrotation 
							JOINT Hand_L
							{
								OFFSET 22.2916 0.0 0.0
								CHANNELS 6 Xposition Yposition Zposition Zrotation Xrotation Yrotation 
								End Site
								{
									OFFSET 0.0 0.0 0.0
								}
							}
						}
					}
				}
				JOINT Shoulder_R
				{
					OFFSET 12.9945 -0.242716 -4.98039
					CHANNELS 6 Xposition Yposition Zposition Zrotation Xrotation Yrotation 
					JOINT UpperArm_R
					{
						OFFSET -5.34813 0.0 0.0
						CHANNELS 6 Xposition Yposition Zposition Zrotation Xrotation Yrotation 
						JOINT LowerArm_R
						{
							OFFSET -24.3289 0.000322201 0.0
							CHANNELS 6 Xposition Yposition Zposition Zrotation Xrotation Yrotation 
							JOINT Hand_R
							{
								OFFSET -22.2915 -0.000108084 0.0
								CHANNELS 6 Xposition Yposition Zposition Zrotation Xrotation Yrotation 
								End Site
								{
									OFFSET 0.0 0.0 0.0
								}
							}
						}
					}
				}
			}
		}
		JOINT UpperLeg_L
		{
			OFFSET -2.19248 -6.46944 0.0
			CHANNELS 6 Xposition Yposition Zposition Zrotation Xrotation Yrotation 
			JOINT LowerLeg_L
			{
				OFFSET 39.0811 0.0 -1.23785e-05
				CHANNELS 6 Xposition Yposition Zposition Zrotation Xrotation Yrotation 
				JOINT Foot_L
				{
					OFFSET 40.9854 0.0 -1.26872e-05
					CHANNELS 6 Xposition Yposition Zposition Zrotation Xrotation Yrotation 
					JOINT Toes_L
					{
						OFFSET 11.7543 0.0 0.0
						CHANNELS 6 Xposition Yposition Zposition Zrotation Xrotation Yrotation 
						End Site
						{
							OFFSET 0.0 0.0 0.0
						}
					}
				}
			}
		}
		JOINT UpperLeg_R
		{
			OFFSET -2.19251 6.46944 0.0
			CHANNELS 6 Xposition Yposition Zposition Zrotation Xrotation Yrotation 
			JOINT LowerLeg_R
			{
				OFFSET -39.0811 -0.00228153 -0.0401928
				CHANNELS 6 Xposition Yposition Zposition Zrotation Xrotation Yrotation 
				JOINT Foot_R
				{
					OFFSET -40.9854 0.0 0.0
					CHANNELS 6 Xposition Yposition Zposition Zrotation Xrotation Yrotation 
					JOINT Toes_R
					{
						OFFSET -11.7543 0.0 0.0
						CHANNELS 6 Xposition Yposition Zposition Zrotation Xrotation Yrotation 
						End Site
						{
							OFFSET 0.0 0.0 0.0
						}
					}
				}
			}
		}
	}
}
MOTION
Frames:	4
Frame Time:	0.0333333
0.000000 0.000000 0.000000 0.000000 0.000000 -0.000000 -1.266260 92.199000 -2.678810 87.742000 -0.078748 3.279000 15.735700 0.000005 -0.000001 85.619200 85.746900 -84.756600 8.984550 -0.406207 -0.000000 0.721175 -0.702528 1.728200 16.377300 -0.000001 -0.000001 0.383712 -3.400950 1.528140 6.456720 -0.000001 -0.000000 2.298060 -2.317680 -3.767190 12.994200 -0.242716 4.980390 -90.025900 0.083572 -72.771400 5.348090 -0.000007 -0.000001 -66.845300 36.595000 -14.701100 24.328600 0.000019 0.000005 2.584830 5.669870 -24.557100 22.291600 -0.000001 0.000005 5.950250 5.515010 -7.150860 12.994500 -0.242716 -4.980390 88.038900 5.467660 -70.233800 -5.348130 -0.000001 -0.000004 -65.434600 33.471500 -15.236600 -24.328900 0.000322 -0.000009 2.235630 5.712940 -21.423000 -22.291500 -0.000108 -0.000004 13.696700 5.484520 -5.922470 -2.192480 -6.469440 -0.000000 -169.234000 -14.562500 -3.215190 39.081100 -0.000007 -0.000012 -0.168488 0.439020 20.996100 40.985400 -0.000006 -0.000013 -5.669090 4.231050 -62.889600 11.754300 -0.000000 0.000003 -0.000034 -0.000404 -16.593300 -2.192510 6.469440 -0.000001 175.016000 20.968800 178.848000 -39.081100 -0.002282 -0.040193 -0.037776 0.118734 19.093100 -40.985400 0.000008 0.000006 -2.758370 2.532480 -62.776700 -11.754300 -0.000006 -0.000006 -0.006486 -0.075189 -19.633600
0.000000 0.000000 0.000000 0.000000 0.000000 -0.000000 -1.270680 92.197100 -2.755450 87.734200 -0.175584 3.447690 15.735700 0.000005 -0.000001 85.563800 85.729000 -84.713700 8.984550 -0.406207 -0.000000 0.756368 -0.712467 1.703670 16.377300 -0.000001 -0.000001 0.197517 -3.377870 1.577440 6.456720 -0.000001 -0.000000 2.145730 -2.244500 -3.696640 12.994200 -0.242716 4.980390 -90.034400 0.109550 -72.559400 5.348090 -0.000007 -0.000001 -66.231500 34.574200 -14.703000 24.328600 0.000019 0.000005 3.302910 6.970790 -25.431600 22.291600 -0.000001 0.000005 6.941420 5.513320 -7.079300 12.994500 -0.242716 -4.980390 88.052000 5.401540 -70.134400 -5.348130 -0.000001 -0.000004 -65.011000 30.996600 -15.208400 -24.328900 0.000322 -0.000009 2.302250 5.721650 -21.971500 -22.291500 -0.000108 -0.000004 14.659000 5.482960 -5.861850 -2.192480 -6.469440 -0.000000 -169.204000 -14.539500 -3.110760 39.081100 -0.000007 -0.000012 -0.167704 0.435540 21.059300 40.985400 -0.000006 -0.000013 -5.676510 4.099350 -62.882700 11.754300 -0.000000 0.000003 -0.000033 -0.000398 -16.593100 -2.192510 6.469440 -0.000001 174.991000 20.884000 178.913000 -39.081100 -0.002282 -0.040193 -0.037760 0.118071 19.185100 -40.985400 0.000008 0.000006 -2.623640 2.565020 -62.777900 -11.754300 -0.000006 -0.000006 -0.006351 -0.073987 -19.584500
0.000000 0.000000 0.000000 0.000000 0.000000 -0.000000 -1.275900 92.194000 -2.837980 87.757600 -0.262738 3.600560 15.735700 0.000005 -0.000001 85.769400 85.736200 -84.943700 8.984550 -0.406207 -0.000000 0.743901 -0.679446 1.654600 16.377300 -0.000001 -0.000001 0.008212 -3.357410 1.545240 6.456720 -0.000001 -0.000000 2.033650 -2.305020 -3.502130 12.994200 -0.242716 4.980390 -90.004200 0.013243 -72.457700 5.348090 -0.000007 -0.000001 -64.923900 31.507100 -15.243800 24.328600 0.000019 0.000005 3.370370 7.061790 -25.595600 22.291600 -0.000001 0.000005 8.309010 5.514630 -7.134560 12.994500 -0.242716 -4.980390 88.074900 5.315750 -70.059100 -5.348130 -0.000001 -0.000004 -64.005500 27.458300 -15.414500 -24.328900 0.000322 -0.000009 2.195930 5.271670 -22.662900 -22.291500 -0.000108 -0.000004 15.490900 5.478240 -5.681540 -2.192480 -6.469440 -0.000000 -169.187000 -14.498100 -2.989780 39.081100 -0.000007 -0.000012 -0.168581 0.437570 21.070200 40.985400 -0.000006 -0.000013 -5.686430 4.066740 -62.856800 11.754300 -0.000000 0.000003 -0.000030 -0.000365 -16.591800 -2.192510 6.469440 -0.000001 174.922000 20.845000 178.976000 -39.081100 -0.002282 -0.040193 -0.039394 0.122374 19.242400 -40.985400 0.000008 0.000006 -2.746950 2.633250 -62.732500 -11.754300 -0.000006 -0.000006 -0.006549 -0.075742 -19.656100
0.000000 0.000000 0.000000 0.000000 0.000000 -0.000000 -1.297230 92.182200 -2.945180 87.699000 -0.315951 3.765500 15.735700 0.000005 -0.000001 85.817900 85.763700 -84.987400 8.984550 -0.406207 -0.000000 0.689518 -0.668945 1.663690 16.377300 -0.000001 -0.000001 -0.165703 -3.336730 1.587530 6.456720 -0.000001 -0.000000 1.877600 -2.350330 -3.410270 12.994200 -0.242716 4.980390 -89.979800 -0.063696 -72.388700 5.348090 -0.000007 -0.000001 -62.864700 26.892000 -16.317400 24.328600 0.000019 0.000005 2.844720 6.110290 -25.024100 22.291600 -0.000001 0.000005 9.142180 5.517150 -7.240940 12.994500 -0.242716 -4.980390 88.122400 5.156930 -69.962700 -5.348130 -0.000001 -0.000004 -62.116500 23.177200 -16.361300 -24.328900 0.000322 -0.000009 2.270400 5.335690 -23.100600 -22.291500 -0.000108 -0.000004 15.944600 5.471720 -5.434850 -2.192480 -6.469440 -0.000000 -169.084000 -14.517500 -2.974800 39.081100 -0.000007 -0.000012 -0.170526 0.438636 21.244500 40.985400 -0.000006 -0.000013 -5.686160 4.046990 -62.869100 11.754300 -0.000000 0.000003 -0.000032 -0.000378 -16.592300 -2.192510 6.469440 -0.000001 174.970000 20.751200 178.993000 -39.081100 -0.002282 -0.040193 -0.041093 0.126299 19.375400 -40.985400 0.000008 0.000006 -2.682380 2.577970 -62.732400 -11.754300 -0.000006 -0.000006 -0.006585 -0.076064 -19.669300
